<svg width="30" height="30" viewBox="0 0 30 30" fill="none" xmlns="http://www.w3.org/2000/svg">
<circle cx="15" cy="15" r="15" fill="url(#paint0_linear_1305_8956)"/>
<circle cx="15" cy="15" r="14" fill="#121212"/>
<circle cx="15" cy="15" r="14" fill="white" fill-opacity="0.07"/>
<g filter="url(#filter0_i_1305_8956)">
<path d="M11.0843 24.3902C11.2718 23.0322 11.4125 21.7623 11.5063 20.5807C11.6001 19.3902 11.647 18.2747 11.647 17.2341C11.647 16.0348 11.5958 14.8664 11.4935 13.7288C11.3997 12.5912 11.2889 11.489 11.161 10.4219L11.0843 9.9722C11.6043 9.91047 12.1201 9.78702 12.6316 9.60183C13.1516 9.40783 13.71 9.13887 14.3068 8.79495C14.1107 10.1089 13.9615 11.3038 13.8592 12.3796C13.7655 13.4466 13.7186 14.4122 13.7186 15.2764L13.7314 15.8717C13.8251 17.8646 13.9019 19.4122 13.9615 20.5145C14.0297 21.6168 14.0851 22.2914 14.1278 22.5383L14.7288 22.8426C15.3938 23.0895 16.0374 23.2129 16.6597 23.2129C18.1175 23.2129 19.3537 22.5824 20.3682 21.3214C20.7774 20.7218 21.1227 20.153 21.404 19.6151C21.6853 19.0771 21.9112 18.5436 22.0817 18.0145C22.2608 17.4766 22.3844 16.9343 22.4526 16.3875C22.5293 15.832 22.5677 15.2368 22.5677 14.6018C22.5677 13.914 22.5165 13.2879 22.4142 12.7235C22.3204 12.1503 22.1712 11.6212 21.9666 11.1362C21.762 10.6512 21.502 10.2015 21.1866 9.78702C20.8797 9.36373 20.5088 8.95809 20.0741 8.57008C19.5455 8.09389 18.9019 7.70589 18.1431 7.40606C17.3929 7.10624 16.5361 6.95633 15.5728 6.95633C15.1295 6.95633 14.6563 7.01365 14.1533 7.12829C13.6589 7.23411 13.1559 7.39284 12.6444 7.60448C12.1329 7.8073 11.6256 8.05421 11.1227 8.34522C10.6197 8.63622 10.1423 8.9625 9.69043 9.32405L10.5472 5.85844L12.6188 5.01188C13.2582 4.81788 13.8507 4.66797 14.3963 4.56215C14.9419 4.44751 15.4406 4.39019 15.8925 4.39019C16.2591 4.39019 16.6597 4.42546 17.0945 4.49601C17.5293 4.55774 17.9939 4.67679 18.4884 4.85315C18.9914 5.02952 19.5157 5.27643 20.0613 5.59389C20.6069 5.91135 21.1738 6.32141 21.762 6.82405C22.1542 7.15915 22.525 7.58243 22.8746 8.09389C23.2326 8.60536 23.5438 9.19178 23.8081 9.85315C24.0809 10.5145 24.294 11.2465 24.4475 12.0489C24.6094 12.8426 24.6904 13.6979 24.6904 14.6151C24.6904 15.5763 24.5924 16.4713 24.3963 17.3002C24.2088 18.1203 23.9615 18.8699 23.6546 19.5489C23.3477 20.2279 22.9939 20.8276 22.5932 21.3479C22.2011 21.8681 21.8004 22.3002 21.3912 22.6442C20.7092 23.2174 20.0101 23.6494 19.294 23.9405C18.5864 24.2315 17.8447 24.3814 17.0689 24.3902L14.3068 23.1733C13.872 23.2262 13.4884 23.3011 13.1559 23.3981C12.8319 23.4863 12.5421 23.5877 12.2863 23.7024C12.0306 23.817 11.8047 23.936 11.6086 24.0595C11.421 24.1741 11.2463 24.2844 11.0843 24.3902Z" fill="url(#paint1_linear_1305_8956)"/>
</g>
<g filter="url(#filter1_i_1305_8956)">
<path d="M12.3673 4.57561C12.5784 4.65484 12.8507 4.78293 13.184 4.95988C13.5261 5.13757 13.8994 5.35719 14.3039 5.61872C14.7171 5.88101 15.1467 6.20572 15.5927 6.59287C16.0395 6.97136 16.4849 7.41512 16.9291 7.92414C17.0556 8.07451 17.1731 8.22847 17.2815 8.38601C17.3994 8.53564 17.5082 8.68885 17.6079 8.84564L14.9156 9.89464C14.5609 9.35848 14.1951 8.89981 13.8183 8.51864C13.4423 8.12882 13.0308 7.79694 12.5837 7.52302C12.1366 7.2491 11.6607 7.00755 11.1557 6.79837C10.6515 6.58053 10.0928 6.3885 9.47956 6.22227C8.48839 6.79919 7.93421 7.76684 7.81699 9.12522C7.73562 10.0683 8.18972 10.7656 9.17931 11.2171C13.9421 13.3975 16.7152 14.9486 17.4986 15.8704C17.7753 16.1994 17.9797 16.6092 18.1116 17.1C18.2436 17.5908 18.2827 18.1477 18.229 18.7707C18.1887 19.2379 18.0503 19.6792 17.814 20.0946C17.5863 20.5108 17.2317 20.9335 16.7501 21.3626C15.8832 22.1159 15.274 22.5601 14.9223 22.6954L11.2937 24.2912C10.4028 24.1097 9.11596 23.467 7.43306 22.363C7.14442 22.1724 6.80231 21.8945 6.40673 21.5291C6.01115 21.1638 5.56321 20.698 5.06293 20.1319C4.92704 19.9894 4.80488 19.8394 4.69644 19.6818C4.58801 19.5243 4.48389 19.3671 4.38411 19.2103L7.0765 18.1613C7.3217 18.6532 8.19245 19.4213 9.68873 20.4656C10.972 21.3521 12.6654 22.0823 14.7689 22.656C15.7694 22.0712 16.3283 21.0996 16.4455 19.7412C16.5441 18.5991 15.8477 17.6282 14.3565 16.8283C12.4973 15.8485 11.0802 15.0987 10.1052 14.5787C9.13022 14.0588 8.58404 13.7719 8.46665 13.7182C6.76061 12.8824 5.97739 11.6555 6.117 10.0376C6.19688 9.11181 6.66163 8.27155 7.51124 7.51679C8.37816 6.76353 8.9831 6.31889 9.32606 6.18287L12.3673 4.57561Z" fill="url(#paint2_linear_1305_8956)"/>
</g>
<mask id="mask0_1305_8956" style="mask-type:alpha" maskUnits="userSpaceOnUse" x="9" y="11" width="8" height="10">
<rect x="9.69043" y="11.3902" width="7" height="9" fill="#C4C4C4"/>
</mask>
<g mask="url(#mask0_1305_8956)">
<g filter="url(#filter2_i_1305_8956)">
<path d="M11.0843 24.3902C11.2718 23.0322 11.4125 21.7623 11.5063 20.5807C11.6001 19.3902 11.647 18.2747 11.647 17.2341C11.647 16.0348 11.5958 14.8664 11.4935 13.7288C11.3997 12.5912 11.2889 11.489 11.161 10.4219L11.0843 9.9722C11.6043 9.91047 12.1201 9.78702 12.6316 9.60183C13.1516 9.40783 13.71 9.13887 14.3068 8.79495C14.1107 10.1089 13.9615 11.3038 13.8592 12.3796C13.7655 13.4466 13.7186 14.4122 13.7186 15.2764L13.7314 15.8717C13.8251 17.8646 13.9019 19.4122 13.9615 20.5145C14.0297 21.6168 14.0851 22.2914 14.1278 22.5383L14.7288 22.8426C15.3938 23.0895 16.0374 23.2129 16.6597 23.2129C18.1175 23.2129 19.3537 22.5824 20.3682 21.3214C20.7774 20.7218 21.1227 20.153 21.404 19.6151C21.6853 19.0771 21.9112 18.5436 22.0817 18.0145C22.2608 17.4766 22.3844 16.9343 22.4526 16.3875C22.5293 15.832 22.5677 15.2368 22.5677 14.6018C22.5677 13.914 22.5165 13.2879 22.4142 12.7235C22.3204 12.1503 22.1712 11.6212 21.9666 11.1362C21.762 10.6512 21.502 10.2015 21.1866 9.78702C20.8797 9.36373 20.5088 8.95809 20.0741 8.57008C19.5455 8.09389 18.9019 7.70589 18.1431 7.40606C17.3929 7.10624 16.5361 6.95633 15.5728 6.95633C15.1295 6.95633 14.6563 7.01365 14.1533 7.12829C13.6589 7.23411 13.1559 7.39284 12.6444 7.60448C12.1329 7.8073 11.6256 8.05421 11.1227 8.34522C10.6197 8.63622 10.1423 8.9625 9.69043 9.32405L10.5472 5.85844L12.6188 5.01188C13.2582 4.81788 13.8507 4.66797 14.3963 4.56215C14.9419 4.44751 15.4406 4.39019 15.8925 4.39019C16.2591 4.39019 16.6597 4.42546 17.0945 4.49601C17.5293 4.55774 17.9939 4.67679 18.4884 4.85315C18.9914 5.02952 19.5157 5.27643 20.0613 5.59389C20.6069 5.91135 21.1738 6.32141 21.762 6.82405C22.1542 7.15915 22.525 7.58243 22.8746 8.09389C23.2326 8.60536 23.5438 9.19178 23.8081 9.85315C24.0809 10.5145 24.294 11.2465 24.4475 12.0489C24.6094 12.8426 24.6904 13.6979 24.6904 14.6151C24.6904 15.5763 24.5924 16.4713 24.3963 17.3002C24.2088 18.1203 23.9615 18.8699 23.6546 19.5489C23.3477 20.2279 22.9939 20.8276 22.5932 21.3479C22.2011 21.8681 21.8004 22.3002 21.3912 22.6442C20.7092 23.2174 20.0101 23.6494 19.294 23.9405C18.5864 24.2315 17.8447 24.3814 17.0689 24.3902L14.3068 23.1733C13.872 23.2262 13.4884 23.3011 13.1559 23.3981C12.8319 23.4863 12.5421 23.5877 12.2863 23.7024C12.0306 23.817 11.8047 23.936 11.6086 24.0595C11.421 24.1741 11.2463 24.2844 11.0843 24.3902Z" fill="url(#paint3_linear_1305_8956)"/>
</g>
</g>
<defs>
<filter id="filter0_i_1305_8956" x="9.69043" y="4.39019" width="15.2" height="20.5" filterUnits="userSpaceOnUse" color-interpolation-filters="sRGB">
<feFlood flood-opacity="0" result="BackgroundImageFix"/>
<feBlend mode="normal" in="SourceGraphic" in2="BackgroundImageFix" result="shape"/>
<feColorMatrix in="SourceAlpha" type="matrix" values="0 0 0 0 0 0 0 0 0 0 0 0 0 0 0 0 0 0 127 0" result="hardAlpha"/>
<feOffset dx="0.2" dy="0.5"/>
<feGaussianBlur stdDeviation="0.25"/>
<feComposite in2="hardAlpha" operator="arithmetic" k2="-1" k3="1"/>
<feColorMatrix type="matrix" values="0 0 0 0 0 0 0 0 0 0 0 0 0 0 0 0 0 0 1 0"/>
<feBlend mode="normal" in2="shape" result="effect1_innerShadow_1305_8956"/>
</filter>
<filter id="filter1_i_1305_8956" x="4.38411" y="4.57561" width="14.0682" height="20.2156" filterUnits="userSpaceOnUse" color-interpolation-filters="sRGB">
<feFlood flood-opacity="0" result="BackgroundImageFix"/>
<feBlend mode="normal" in="SourceGraphic" in2="BackgroundImageFix" result="shape"/>
<feColorMatrix in="SourceAlpha" type="matrix" values="0 0 0 0 0 0 0 0 0 0 0 0 0 0 0 0 0 0 127 0" result="hardAlpha"/>
<feOffset dx="0.2" dy="0.5"/>
<feGaussianBlur stdDeviation="0.25"/>
<feComposite in2="hardAlpha" operator="arithmetic" k2="-1" k3="1"/>
<feColorMatrix type="matrix" values="0 0 0 0 0 0 0 0 0 0 0 0 0 0 0 0 0 0 1 0"/>
<feBlend mode="normal" in2="shape" result="effect1_innerShadow_1305_8956"/>
</filter>
<filter id="filter2_i_1305_8956" x="9.69043" y="4.39019" width="15.2" height="20.5" filterUnits="userSpaceOnUse" color-interpolation-filters="sRGB">
<feFlood flood-opacity="0" result="BackgroundImageFix"/>
<feBlend mode="normal" in="SourceGraphic" in2="BackgroundImageFix" result="shape"/>
<feColorMatrix in="SourceAlpha" type="matrix" values="0 0 0 0 0 0 0 0 0 0 0 0 0 0 0 0 0 0 127 0" result="hardAlpha"/>
<feOffset dx="0.2" dy="0.5"/>
<feGaussianBlur stdDeviation="0.25"/>
<feComposite in2="hardAlpha" operator="arithmetic" k2="-1" k3="1"/>
<feColorMatrix type="matrix" values="0 0 0 0 0 0 0 0 0 0 0 0 0 0 0 0 0 0 1 0"/>
<feBlend mode="normal" in2="shape" result="effect1_innerShadow_1305_8956"/>
</filter>
<linearGradient id="paint0_linear_1305_8956" x1="14.5" y1="-21.5" x2="15" y2="28.5" gradientUnits="userSpaceOnUse">
<stop offset="0.078125" stop-color="#AA771C" stop-opacity="0"/>
<stop offset="0.307292" stop-color="#FBF5B7" stop-opacity="0.286458"/>
<stop offset="0.53125" stop-color="#B38728" stop-opacity="0.46875"/>
<stop offset="0.713542" stop-color="#FCF6BA" stop-opacity="0.713542"/>
<stop offset="1" stop-color="#AA771C"/>
</linearGradient>
<linearGradient id="paint1_linear_1305_8956" x1="17.1904" y1="-8.60981" x2="17.1904" y2="24.3902" gradientUnits="userSpaceOnUse">
<stop stop-color="#BF953F"/>
<stop offset="0.234375" stop-color="#FCF6BA"/>
<stop offset="0.515625" stop-color="#B38728"/>
<stop offset="0.78125" stop-color="#FBF5B7"/>
<stop offset="1" stop-color="#AA771C"/>
</linearGradient>
<linearGradient id="paint2_linear_1305_8956" x1="13.6518" y1="-8.1889" x2="10.8524" y2="24.2531" gradientUnits="userSpaceOnUse">
<stop stop-color="#BF953F"/>
<stop offset="0.234375" stop-color="#FCF6BA"/>
<stop offset="0.515625" stop-color="#B38728"/>
<stop offset="0.78125" stop-color="#FBF5B7"/>
<stop offset="1" stop-color="#AA771C"/>
</linearGradient>
<linearGradient id="paint3_linear_1305_8956" x1="17.1904" y1="-8.60981" x2="17.1904" y2="24.3902" gradientUnits="userSpaceOnUse">
<stop stop-color="#BF953F"/>
<stop offset="0.234375" stop-color="#FCF6BA"/>
<stop offset="0.515625" stop-color="#B38728"/>
<stop offset="0.78125" stop-color="#FBF5B7"/>
<stop offset="1" stop-color="#AA771C"/>
</linearGradient>
</defs>
</svg>
